<?xml version="1.0" encoding="utf-8"?>
<!-- Generator: Adobe Illustrator 16.0.0, SVG Export Plug-In . SVG Version: 6.00 Build 0)  -->
<!DOCTYPE svg PUBLIC "-//W3C//DTD SVG 1.1//EN" "http://www.w3.org/Graphics/SVG/1.1/DTD/svg11.dtd">
<svg version="1.1" id="Layer_1" xmlns="http://www.w3.org/2000/svg" xmlns:xlink="http://www.w3.org/1999/xlink" x="0px" y="0px"
	 width="237.471px" height="115.514px" viewBox="0 0 237.471 115.514" enable-background="new 0 0 237.471 115.514"
	 xml:space="preserve">
<linearGradient id="SVGID_1_" gradientUnits="userSpaceOnUse" x1="127.0959" y1="25.0549" x2="127.0959" y2="138.5691" gradientTransform="matrix(1 0 0 -1 -8.3599 139.5688)">
	<stop  offset="0.1452" style="stop-color:#0C0225"/>
	<stop  offset="1" style="stop-color:#1E0854"/>
</linearGradient>
<rect x="1" y="1" fill="url(#SVGID_1_)" stroke="#1C074F" stroke-width="2" width="235.471" height="113.514"/>
<g>
	<path fill="#FFFFFF" d="M64.501,60.542c0.367-1.559,0.825-2.979,1.421-4.309l5.134,1.559c-0.413,1.421-0.688,2.566-0.871,3.529
		c-0.183,0.963-0.275,1.925-0.275,2.842c0,3.759,2.108,5.638,6.372,5.638c2.063,0,3.529-0.458,4.492-1.329
		c0.917-0.871,1.375-2.292,1.375-4.263V50.871h5.959v13.522c0,7.563-3.851,11.367-11.551,11.367c-4.08,0-7.197-0.962-9.351-2.842
		c-2.154-1.879-3.254-4.584-3.254-8.113C63.951,63.568,64.135,62.147,64.501,60.542z M73.898,43.262
		c0.596-0.596,1.375-0.871,2.338-0.871c1.008,0,1.833,0.275,2.429,0.871c0.596,0.596,0.871,1.421,0.871,2.383
		c0,1.054-0.275,1.833-0.871,2.429c-0.596,0.596-1.421,0.917-2.429,0.917c-1.009,0-1.788-0.321-2.384-0.917
		c-0.596-0.596-0.871-1.375-0.871-2.429C72.981,44.683,73.302,43.858,73.898,43.262z"/>
	<path fill="#FFFFFF" d="M102.64,66.593c-2.659,0-4.676-0.688-6.051-2.017c-1.375-1.33-2.063-3.255-2.063-5.776V36.799h5.958v20.26
		c0,1.329,0.275,2.292,0.825,2.796c0.505,0.504,1.513,0.779,2.979,0.779h0.642l0.551,5.959H102.64z"/>
	<path fill="#FFFFFF" d="M140.089,66.593c-2.888,0-4.858-0.871-5.821-2.567c-1.283,1.696-3.392,2.567-6.325,2.567h-23.011
		c-0.596,0-1.009-0.229-1.237-0.642c-0.229-0.413-0.367-1.192-0.367-2.246c0-1.101,0.138-1.88,0.367-2.384
		c0.229-0.458,0.642-0.688,1.237-0.688h3.713V47.112h5.959v1.742c1.65-0.779,3.392-1.421,5.18-1.925
		c1.787-0.504,3.575-0.733,5.316-0.733c3.53,0,6.188,0.917,7.977,2.796c1.741,1.879,2.612,4.354,2.612,7.518v0.55
		c0,1.329,0.321,2.246,0.917,2.75c0.596,0.55,1.604,0.825,2.934,0.825L140.089,66.593z M129.73,56.967
		c0-1.513-0.458-2.704-1.329-3.575c-0.871-0.825-2.2-1.238-3.942-1.238c-1.421,0-2.888,0.184-4.4,0.55
		c-1.513,0.413-3.3,1.008-5.454,1.788v6.142h11.643c1.283,0,2.2-0.184,2.704-0.55c0.505-0.367,0.779-1.055,0.779-2.108V56.967z
		 M120.104,36.753c0.596-0.596,1.375-0.871,2.338-0.871c1.009,0,1.834,0.275,2.43,0.871c0.596,0.596,0.871,1.421,0.871,2.384
		c0,1.054-0.275,1.833-0.871,2.429c-0.596,0.596-1.421,0.917-2.43,0.917c-1.008,0-1.787-0.321-2.384-0.917
		c-0.596-0.596-0.87-1.375-0.87-2.429C119.188,38.174,119.508,37.349,120.104,36.753z"/>
	<path fill="#FFFFFF" d="M159.068,64.163c-1.741,1.788-4.125,2.658-7.104,2.658c-2.246,0-4.171-0.55-5.684-1.604
		c-1.101,0.916-3.025,1.375-5.729,1.375h-1.009c-0.596,0-1.009-0.229-1.237-0.642c-0.229-0.413-0.367-1.192-0.367-2.246
		c0-1.101,0.138-1.88,0.367-2.384c0.229-0.458,0.642-0.688,1.237-0.688h0.229c1.375,0,2.383-0.138,3.025-0.458
		c-0.321-1.055-0.459-2.246-0.459-3.622c0-3.208,0.871-5.729,2.613-7.609c1.741-1.833,4.079-2.75,7.013-2.75
		c2.979,0,5.317,0.962,7.059,2.842c1.742,1.925,2.613,4.538,2.613,7.792C161.635,59.992,160.764,62.421,159.068,64.163z
		 M154.851,53.3c-0.596-0.779-1.559-1.146-2.888-1.146c-1.283,0-2.2,0.367-2.796,1.1s-0.871,1.833-0.871,3.3
		c0,1.421,0.275,2.521,0.871,3.254c0.596,0.779,1.513,1.146,2.796,1.146c1.329,0,2.246-0.366,2.842-1.054s0.871-1.742,0.871-3.071
		C155.676,55.225,155.401,54.079,154.851,53.3z"/>
	<path fill="#FFFFFF" d="M163.928,69.755c0.274,0.046,0.642,0.046,1.1,0.046c1.604,0,2.75-0.366,3.483-1.054
		c0.688-0.688,1.055-1.88,1.055-3.575v-18.06h5.959v18.61c0,3.392-0.825,5.913-2.521,7.563c-1.695,1.649-4.263,2.475-7.654,2.475
		c-0.413,0-1.009-0.046-1.742-0.092L163.928,69.755z"/>
</g>
</svg>
